# xmcd
#
# Track frame offsets:
#	150
#	13245
#	27110
#	43339
#	63658
#	76369
#	92767
#	105881
#	118648
#	132751
#	148188
#	165067
#	180422
#	194958
#	213270
#	223243
#	236595
#	246515
#	255900
#	269831
#	283554
#	292986
#	312036
#	327650
#
# Disc length: 4629 seconds
#
# Revision: 1
# Processed by: cddbd v1.5.2PL0 Copyright (c) Steve Scherf et al.
# Submitted via: audiograbber 1.83.01
#
DISCID=6a121318
DTITLE=Garland Green - The Very Best Of Garland Green [ACE]
DYEAR=2008
DGENRE=Soul
TTITLE0=Jealous Kind Of Fella
TTITLE1=Just My Way Of Loving You
TTITLE2=Just Loving You
TTITLE3=These Arms
TTITLE4=Don't Think That I'm A Violent Guy
TTITLE5=Since You've Been Gone
TTITLE6=I've Quit Running The Streets
TTITLE7=Angel Baby
TTITLE8=Let The Good Times Roll
TTITLE9=Plain And Simple Girl
TTITLE10=He Didn't Know (He Kept On Talking)
TTITLE11=Sweet Loving Woman
TTITLE12=Let Me Be Your Pacifier
TTITLE13=You Make Me Feel So Good
TTITLE14=You Played On A Player
TTITLE15=Ask Me What You Want
TTITLE16=Ain't That Good Enough
TTITLE17=It Rained Forty Days And Nights
TTITLE18=Sending My Best Wishes
TTITLE19=Don't Let Love Walk Out On Us
TTITLE20=Girl, I Love You
TTITLE21=Nothing Can Take You From Me
TTITLE22=Just What The Doctor Ordered
TTITLE23=Love's Calling
EXTD=
EXTT0=
EXTT1=
EXTT2=
EXTT3=
EXTT4=
EXTT5=
EXTT6=
EXTT7=
EXTT8=
EXTT9=
EXTT10=
EXTT11=
EXTT12=
EXTT13=
EXTT14=
EXTT15=
EXTT16=
EXTT17=
EXTT18=
EXTT19=
EXTT20=
EXTT21=
EXTT22=
EXTT23=
PLAYORDER=
